HIERARCHY
ROOT hips
{
  OFFSET 0 10.6860622 2.3727825e-15
  CHANNELS 6 Xposition Yposition Zposition Yrotation Xrotation Zrotation
  JOINT leftUpperLeg
  {
    OFFSET 0.6642549969 -0.9402397400000004 0
    CHANNELS 3 Yrotation Xrotation Zrotation
    JOINT leftLowerLeg
    {
      OFFSET 0 -3.997221335632195 0
      CHANNELS 3 Yrotation Xrotation Zrotation
      JOINT leftFoot
      {
        OFFSET -0.13777839790000004 -4.6145792000000005 -0.22186036399999998
        CHANNELS 3 Yrotation Xrotation Zrotation
        JOINT leftToes
        {
          OFFSET -0.03777410834999995 -0.9130806927000008 0.85230013
          CHANNELS 3 Yrotation Xrotation Zrotation
          End Site
          {
            OFFSET -0.03777410834999995 -0.9130806927000008 0.85230013
          }
        }
      }
    }
  }
  JOINT rightUpperLeg
  {
    OFFSET -0.6642778626 -0.9402397400000004 0
    CHANNELS 3 Yrotation Xrotation Zrotation
    JOINT rightLowerLeg
    {
      OFFSET 0 -3.997221452859387 0
      CHANNELS 3 Yrotation Xrotation Zrotation
      JOINT rightFoot
      {
        OFFSET 0.1377926176 -4.6145792000000005 -0.22185782299999995
        CHANNELS 3 Yrotation Xrotation Zrotation
        JOINT rightToes
        {
          OFFSET 0.037780746850000047 -0.9130806927000008 0.85230167
          CHANNELS 3 Yrotation Xrotation Zrotation
          End Site
          {
            OFFSET 0.037780746850000047 -0.9130806927000008 0.85230167
          }
        }
      }
    }
  }
  JOINT spine
  {
    OFFSET 0 0.13988381660000015 0
    CHANNELS 3 Yrotation Xrotation Zrotation
    JOINT chest
    {
      OFFSET 0 0.6191039003973773 0
      CHANNELS 3 Yrotation Xrotation Zrotation
      JOINT upperChest
      {
        OFFSET 0 0.9855186130586943 0
        CHANNELS 3 Yrotation Xrotation Zrotation
        JOINT leftShoulder
        {
          OFFSET 0.1807663869 1.5087829790000005 0
          CHANNELS 3 Yrotation Xrotation Zrotation
          JOINT leftUpperArm
          {
            OFFSET 0.5985063006419806 0 0
            CHANNELS 3 Yrotation Xrotation Zrotation
            JOINT leftLowerArm
            {
              OFFSET 2.2993332369501065 0 0
              CHANNELS 3 Yrotation Xrotation Zrotation
              JOINT leftHand
              {
                OFFSET 2.395047042602395 0 0
                CHANNELS 3 Yrotation Xrotation Zrotation
                JOINT leftIndexProximal
                {
                  OFFSET 0.5766295810000004 0.04556643899499946 0.17265095988184
                  CHANNELS 3 Yrotation Xrotation Zrotation
                  JOINT leftIndexIntermediate
                  {
                    OFFSET 0.2957229000000008 -0.019352197700001517 -0.007932640616999987
                    CHANNELS 3 Yrotation Xrotation Zrotation
                    JOINT leftIndexDistal
                    {
                      OFFSET 0.19008243099999922 -0.012484908149998475 -0.002786250786000012
                      CHANNELS 3 Yrotation Xrotation Zrotation
                      End Site
                      {
                        OFFSET 0.19008243099999922 -0.012484908149998475 -0.002786250786000012
                      }
                    }
                  }
                }
                JOINT leftMiddleProximal
                {
                  OFFSET 0.5834975091000001 0.0524350405149987 0.02204081888183999
                  CHANNELS 3 Yrotation Xrotation Zrotation
                  JOINT leftMiddleIntermediate
                  {
                    OFFSET 0.33880573540000003 -0.019871473270000717 -0.00000971183179999946
                    CHANNELS 3 Yrotation Xrotation Zrotation
                    JOINT leftMiddleDistal
                    {
                      OFFSET 0.20676022730000088 -0.012221336379999448 0.0001471936708000235
                      CHANNELS 3 Yrotation Xrotation Zrotation
                      End Site
                      {
                        OFFSET 0.20676022730000088 -0.012221336379999448 0.0001471936708000235
                      }
                    }
                  }
                }
                JOINT leftLittleProximal
                {
                  OFFSET 0.5344154683999995 -0.012880921405001189 -0.24414037221816004
                  CHANNELS 3 Yrotation Xrotation Zrotation
                  JOINT leftLittleIntermediate
                  {
                    OFFSET 0.21758961730000093 -0.011650919939999227 0.011893592810000034
                    CHANNELS 3 Yrotation Xrotation Zrotation
                    JOINT leftLittleDistal
                    {
                      OFFSET 0.1475273964999999 -0.008152365682999818 0.006001092492999946
                      CHANNELS 3 Yrotation Xrotation Zrotation
                      End Site
                      {
                        OFFSET 0.1475273964999999 -0.008152365682999818 0.006001092492999946
                      }
                    }
                  }
                }
                JOINT leftRingProximal
                {
                  OFFSET 0.5799399463000003 0.026911854694997794 -0.12150566991816003
                  CHANNELS 3 Yrotation Xrotation Zrotation
                  JOINT leftRingIntermediate
                  {
                    OFFSET 0.26167887460000006 -0.013480186499999602 0.010996293000000053
                    CHANNELS 3 Yrotation Xrotation Zrotation
                    JOINT leftRingDistal
                    {
                      OFFSET 0.17667108799999987 -0.008990287899999228 0.0055541023999999065
                      CHANNELS 3 Yrotation Xrotation Zrotation
                      End Site
                      {
                        OFFSET 0.17667108799999987 -0.008990287899999228 0.0055541023999999065
                      }
                    }
                  }
                }
                JOINT leftThumbProximal
                {
                  OFFSET 0.11018806699999972 -0.09448718900500053 0.17047963138184
                  CHANNELS 3 Yrotation Xrotation Zrotation
                  JOINT leftThumbIntermediate
                  {
                    OFFSET 0.31062601459999983 -0.08126270900000132 0.15443142000000007
                    CHANNELS 3 Yrotation Xrotation Zrotation
                    JOINT leftThumbDistal
                    {
                      OFFSET 0.21627175790000086 -0.08833193599999878 0.018771167799999988
                      CHANNELS 3 Yrotation Xrotation Zrotation
                      End Site
                      {
                        OFFSET 0.21627175790000086 -0.08833193599999878 0.018771167799999988
                      }
                    }
                  }
                }
              }
            }
          }
        }
        JOINT neck
        {
          OFFSET 0 1.5463305265074576 0
          CHANNELS 3 Yrotation Xrotation Zrotation
          JOINT head
          {
            OFFSET 0 0.8456443600000344 0
            CHANNELS 3 Yrotation Xrotation Zrotation
            JOINT leftEye
            {
              OFFSET 0.30408573140000006 0.5104519199999995 0.1276382305
              CHANNELS 3 Yrotation Xrotation Zrotation
              End Site
              {
                OFFSET 0.30408573140000006 0.5104519199999995 0.1276382305
              }
            }
            JOINT rightEye
            {
              OFFSET -0.30409491089999996 0.5104519199999995 0.1276379445
              CHANNELS 3 Yrotation Xrotation Zrotation
              End Site
              {
                OFFSET -0.30409491089999996 0.5104519199999995 0.1276379445
              }
            }
            JOINT jaw
            {
              OFFSET -3.155239131000001e-7 -0.11984121820000082 0.60178107
              CHANNELS 3 Yrotation Xrotation Zrotation
              End Site
              {
                OFFSET -3.155239131000001e-7 -0.11984121820000082 0.60178107
              }
            }
          }
        }
        JOINT rightShoulder
        {
          OFFSET -0.1807303465 1.5087829790000005 0
          CHANNELS 3 Yrotation Xrotation Zrotation
          JOINT rightUpperArm
          {
            OFFSET -0.5985063796536958 0 0
            CHANNELS 3 Yrotation Xrotation Zrotation
            JOINT rightLowerArm
            {
              OFFSET -2.2993322059002854 0 0
              CHANNELS 3 Yrotation Xrotation Zrotation
              JOINT rightHand
              {
                OFFSET -2.395045314457259 0 0
                CHANNELS 3 Yrotation Xrotation Zrotation
                JOINT rightIndexProximal
                {
                  OFFSET -0.5764487688300002 0.0441371204405987 0.17361932004999997
                  CHANNELS 3 Yrotation Xrotation Zrotation
                  JOINT rightIndexIntermediate
                  {
                    OFFSET -0.29573011380000047 -0.01934826376999843 -0.007698921482999974
                    CHANNELS 3 Yrotation Xrotation Zrotation
                    JOINT rightIndexDistal
                    {
                      OFFSET -0.19008373999999884 -0.012503266380000655 -0.0026365778999999897
                      CHANNELS 3 Yrotation Xrotation Zrotation
                      End Site
                      {
                        OFFSET -0.19008373999999884 -0.012503266380000655 -0.0026365778999999897
                      }
                    }
                  }
                }
                JOINT rightMiddleProximal
                {
                  OFFSET -0.5834852037300005 0.05211639405060153 0.02307162440000001
                  CHANNELS 3 Yrotation Xrotation Zrotation
                  JOINT rightMiddleIntermediate
                  {
                    OFFSET -0.33880114510000003 -0.019952774050000954 0.0002455003561999819
                    CHANNELS 3 Yrotation Xrotation Zrotation
                    JOINT rightMiddleDistal
                    {
                      OFFSET -0.20675694929999955 -0.012273788999999091 0.00030209124000002766
                      CHANNELS 3 Yrotation Xrotation Zrotation
                      End Site
                      {
                        OFFSET -0.20675694929999955 -0.012273788999999091 0.00030209124000002766
                      }
                    }
                  }
                }
                JOINT rightLittleProximal
                {
                  OFFSET -0.5346811737299992 -0.011214256288399227 -0.24363941305000003
                  CHANNELS 3 Yrotation Xrotation Zrotation
                  JOINT rightLittleIntermediate
                  {
                    OFFSET -0.21757715980000092 -0.011771559690000988 0.01201554387
                    CHANNELS 3 Yrotation Xrotation Zrotation
                    JOINT rightLittleDistal
                    {
                      OFFSET -0.1475201849000004 -0.00822055339600003 0.006082065407000015
                      CHANNELS 3 Yrotation Xrotation Zrotation
                      End Site
                      {
                        OFFSET -0.1475201849000004 -0.00822055339600003 0.006082065407000015
                      }
                    }
                  }
                }
                JOINT rightRingProximal
                {
                  OFFSET -0.5800810755299999 0.027657985680600072 -0.12066365025000003
                  CHANNELS 3 Yrotation Xrotation Zrotation
                  JOINT rightRingIntermediate
                  {
                    OFFSET -0.26166445029999974 -0.013623118409999302 0.011164098990000045
                    CHANNELS 3 Yrotation Xrotation Zrotation
                    JOINT rightRingDistal
                    {
                      OFFSET -0.17666387530000027 -0.009072900100000503 0.005668185599999959
                      CHANNELS 3 Yrotation Xrotation Zrotation
                      End Site
                      {
                        OFFSET -0.17666387530000027 -0.009072900100000503 0.005668185599999959
                      }
                    }
                  }
                }
                JOINT rightThumbProximal
                {
                  OFFSET -0.10997596379000074 -0.09577489355940072 0.16989765924999997
                  CHANNELS 3 Yrotation Xrotation Zrotation
                  JOINT rightThumbIntermediate
                  {
                    OFFSET -0.31036620999999986 -0.08229339117999834 0.15440884469999996
                    CHANNELS 3 Yrotation Xrotation Zrotation
                    JOINT rightThumbDistal
                    {
                      OFFSET -0.21631306399999906 -0.08825326400000111 0.018656797720000014
                      CHANNELS 3 Yrotation Xrotation Zrotation
                      End Site
                      {
                        OFFSET -0.21631306399999906 -0.08825326400000111 0.018656797720000014
                      }
                    }
                  }
                }
              }
            }
          }
        }
      }
    }
  }
}
MOTION
Frames: 5
Frame Time: 0.03333333333333333
1.5333516168064758 -6.081824559191995 7.34913515518517 -169.1046752070839 -0.013345917118280915 0.011022099899719274 -3.9147559824181415 -21.111061736397204 5.233470838134331 156.5952726274367 75.46826611868093 162.19310402661188 7.6798101428463745 60.246778970845924 14.739534015246607 0 0 0 -1.4747631718378318 -19.25095256242406 3.242867748646763 -159.18298939473033 70.11133048150833 -165.1449469999712 -17.60696483839899 60.020850527799816 -18.096476594257027 0 0 0 -0.9092088711475365 -2.7982283911823336 5.351855055971802 -1.140447981120159 17.3347655151919 -9.152037962502872 0 0 0 61.269887166694225 -43.85342243376455 -52.682788656773695 -9.902256840155529 34.75329274456951 -60.436172653161634 -12.475326340146088 -3.0570185948777273 57.70320590096707 1.8316436185080738 -29.32450939223655 -10.379540310930315 0 0 0 0 0 0 0 0 0 0 0 0 0 0 0 0 0 0 0 0 0 0 0 0 0 0 0 0 0 0 0 0 0 0 0 0 0 0 0 0 0 0 0 0 0 7.396638452838685 9.384071242359388 18.059616237848648 -0.038290619833451105 -36.3455492296452 6.696546050596487 0 0 0 0 0 0 0 0 0 19.455696118558365 -1.307697645521057 6.514825796843631 13.992023366326904 -27.060956260788632 61.07975063820828 48.17618697868604 -2.2279565484427004 1.9028304342883016 -8.916331450415116 27.95626825333831 1.3705340337814647 0 0 0 0 0 0 0 0 0 0 0 0 0 0 0 0 0 0 0 0 0 0 0 0 0 0 0 0 0 0 0 0 0 0 0 0 0 0 0 0 0 0 0 0 0
1.5742519150308087 -6.097464447821678 7.360153194706828 -169.1046752070839 -0.013345917118280915 0.011022099899719274 -4.2456836566041405 -21.379414452572657 5.615096888985401 156.59527418876874 75.46826611868093 162.1931056464192 7.034441814186622 60.34419517518946 14.417740295619875 0 0 0 -1.772665453282226 -19.56227411957963 3.6168019985280058 -159.41624399555036 69.8169670961094 -165.38353066553515 -18.21434655633322 60.00036022081916 -18.41682278149914 0 0 0 -0.9064116580397903 -2.7725878766958076 5.843567327703546 -1.143608638775196 17.371387572516493 -9.114566131139052 0 0 0 61.61698269834407 -43.52317084421786 -53.13446461895656 -9.863689626471805 34.809467082769935 -60.35760400211016 -12.053857866630866 -3.8718397950142234 56.962746588601576 2.2079395774273936 -29.427196918404064 -10.940267429376906 0 0 0 0 0 0 0 0 0 0 0 0 0 0 0 0 0 0 0 0 0 0 0 0 0 0 0 0 0 0 0 0 0 0 0 0 0 0 0 0 0 0 0 0 0 6.900724104131289 9.529172339974448 18.432653033962428 -0.03810574671817788 -36.33397504136272 6.8135040533344196 0 0 0 0 0 0 0 0 0 19.420851447449916 0.41059094467754575 7.28061967455383 13.951682567489392 -26.874284933823475 61.53706939786687 48.82504515154574 -2.246501414224737 2.11833085622863 -10.096444780344116 30.660228171038984 0.8460540273220715 0 0 0 0 0 0 0 0 0 0 0 0 0 0 0 0 0 0 0 0 0 0 0 0 0 0 0 0 0 0 0 0 0 0 0 0 0 0 0 0 0 0 0 0 0
1.6560525114794749 -6.1287434199042305 7.382188468573328 -169.1046752070839 -0.013345917118280915 0.011022099899719274 -4.915072341158225 -21.909858773510372 6.385394278787226 156.59527418876874 75.46826611868093 162.1931056464192 5.7347590164302265 60.53357368082796 13.76474462714005 0 0 0 -2.3766405270310798 -20.17930153055326 4.371962937609384 -159.8628451734464 69.22730758594395 -165.84080377968044 -19.427129557543925 59.95430848347951 -19.055466078985297 0 0 0 -0.9001583053781101 -2.721387572812345 6.826890536079338 -1.1498561872864868 17.444633990671036 -9.03960629704024 0 0 0 62.294787923155006 -42.85686361833641 -54.02220762014902 -9.78618180835866 34.92167677473688 -60.20015738732573 -11.17749950370379 -5.485361370412229 55.460632343099945 2.964967915523029 -29.62288764653374 -12.065565184839846 0 0 0 0 0 0 0 0 0 0 0 0 0 0 0 0 0 0 0 0 0 0 0 0 0 0 0 0 0 0 0 0 0 0 0 0 0 0 0 0 0 0 0 0 0 5.911305573275022 9.828848478973743 19.175226168943222 -0.03764695519710516 -36.3108233455497 7.047343381445482 0 0 0 0 0 0 0 0 0 19.41981557880043 3.829291558232887 8.803715631287776 13.87620259228342 -26.500144668494958 62.44896521103213 50.12237457633615 -2.290892312419914 2.548579169463494 -12.65569972643968 36.02181382992907 -0.4557316634894806 0 0 0 0 0 0 0 0 0 0 0 0 0 0 0 0 0 0 0 0 0 0 0 0 0 0 0 0 0 0 0 0 0 0 0 0 0 0 0 0 0 0 0 0 0
1.696952809703808 -6.144383308533914 7.393206239702714 -169.1046752070839 -0.013345917118280915 0.011022099899719274 -5.25350135430996 -22.171864945085886 6.774032694741682 156.59527418876874 75.46826611868093 162.1931056464192 5.080562555064696 60.62547668720897 13.433632044897957 0 0 0 -2.682698261329391 -20.484910439569866 4.753172040143994 -160.07673650935814 68.9320402821991 -166.06003981453762 -20.03238724060109 59.92876090407363 -19.37363914529732 0 0 0 -0.8967020827826088 -2.6958356758893034 7.318428202255467 -1.152943015902833 17.481256592134507 -9.002118168266593 0 0 0 62.62560206100162 -42.52095494517234 -54.45836990988166 -9.747250593785315 34.977720382196765 -60.121285750142924 -10.722698865344878 -6.283013501094382 54.69902113521906 3.3455529799076347 -29.715837263632697 -12.62997277260089 0 0 0 0 0 0 0 0 0 0 0 0 0 0 0 0 0 0 0 0 0 0 0 0 0 0 0 0 0 0 0 0 0 0 0 0 0 0 0 0 0 0 0 0 0 5.417962889281896 9.983343875313558 19.54461374533581 -0.037373772120537614 -36.29925007548642 7.1642252190888165 0 0 0 0 0 0 0 0 0 19.45318896606684 5.525565764040503 9.562137589224031 13.841056420197372 -26.312720082324425 62.90350177333097 50.77062846306525 -2.316722554432724 2.763209619296193 -13.96606210324752 38.64028017275815 -0.8849329338684205 0 0 0 0 0 0 0 0 0 0 0 0 0 0 0 0 0 0 0 0 0 0 0 0 0 0 0 0 0 0 0 0 0 0 0 0 0 0 0 0 0 0 0 0 0
1.737853107928141 -6.160023197163598 7.4042240108321 -169.1046752070839 -0.013345917118280915 0.011022099899719274 -5.594478394638127 -22.431731521997552 7.165065968112054 156.59527418876874 75.46826611868093 162.1931056464192 4.423440266235742 60.71551282951315 13.099458745501966 0 0 0 -2.9915374018971956 -20.788598056614305 5.1368861603326055 -160.28470417777797 68.63648961970843 -166.27335448094396 -20.636870068137743 59.90153045786349 -19.69100478711925 0 0 0 -0.8930266410620238 -2.670314016395712 7.809957828109184 -1.1560052259561835 17.51788298619529 -8.964625116132742 0 0 0 62.95118473103327 -42.1832107517318 -54.88957791137401 -9.708198442458768 35.03371895307948 -60.04231332511704 -10.25651506659902 -7.074551192539686 53.929816228236625 3.7275217762594393 -29.805523669888558 -13.195594135442455 0 0 0 0 0 0 0 0 0 0 0 0 0 0 0 0 0 0 0 0 0 0 0 0 0 0 0 0 0 0 0 0 0 0 0 0 0 0 0 0 0 0 0 0 0 4.925403805474257 10.14096386689538 19.912813053347 -0.037071335276803064 -36.28767428553793 7.281090409160786 0 0 0 0 0 0 0 0 0 19.50929706911032 7.221249495064375 10.324067050694303 13.807623616010417 -26.12505235786522 63.35717776624697 51.41879204402208 -2.344977451352397 2.977537667900862 -15.353515873868657 41.24999019481981 -1.410352381550574 0 0 0 0 0 0 0 0 0 0 0 0 0 0 0 0 0 0 0 0 0 0 0 0 0 0 0 0 0 0 0 0 0 0 0 0 0 0 0 0 0 0 0 0 0
